<?xml version="1.0" encoding="utf-8"?>
<!-- Generator: Adobe Illustrator 25.4.1, SVG Export Plug-In . SVG Version: 6.00 Build 0)  -->
<svg version="1.1" xmlns="http://www.w3.org/2000/svg" xmlns:xlink="http://www.w3.org/1999/xlink" x="0px" y="0px"
	 viewBox="0 0 179.66 39.99" style="enable-background:new 0 0 179.66 39.99;" xml:space="preserve">
<style type="text/css">
	.st0{fill:url(#SVGID_1_);}
	.st1{fill:url(#SVGID_00000023258451406308847820000009302097964454108317_);}
	.st2{fill:url(#SVGID_00000008136840696038709140000010961918919644995748_);}
	.st3{fill:url(#SVGID_00000160149890185695057830000008652845739143738243_);}
	.st4{fill:url(#SVGID_00000018956843622206902180000000775897637923083905_);}
	.st5{fill:url(#SVGID_00000162346569486100157620000012489526152243745972_);}
	.st6{fill:url(#SVGID_00000119837170558996095010000009679155132458086537_);}
	.st7{fill:url(#SVGID_00000132061433972986504600000005843046928265570996_);}
	.st8{fill:url(#SVGID_00000102511639932133173540000008649530511297582268_);}
	.st9{fill:url(#SVGID_00000014620260111971632410000009987232160751863956_);}
	.st10{fill:#ECCC92;}
</style>
<g id="Layer_2">
</g>
<g id="Layer_1">
	<g>
		<g>
			<linearGradient id="SVGID_1_" gradientUnits="userSpaceOnUse" x1="-3.4285" y1="59.0789" x2="195.2954" y2="19.5422">
				<stop  offset="0" style="stop-color:#6A4822"/>
				<stop  offset="0.2458" style="stop-color:#EBCC92"/>
				<stop  offset="0.7818" style="stop-color:#DECBA5"/>
				<stop  offset="1" style="stop-color:#7F5D33"/>
			</linearGradient>
			<path class="st0" d="M176.7,15.36l-6.16,18.91l-1.86-9.58l-14.16,0c-1.23,1.28-2.66,1.91-4.31,1.91c-1.49,0-2.74-0.5-3.71-1.49
				c-0.97-0.99-1.46-2.27-1.49-3.87h11.23c0.03-0.18,0.03-0.39,0.03-0.65c0-1.85-0.57-3.4-1.75-4.68c-1.15-1.28-2.61-1.91-4.36-1.91
				c-1.83,0-3.37,0.65-4.6,1.96c-1.23,1.28-1.83,2.95-1.83,4.99v0.08c0,2.01,0.6,3.63,1.8,4.91c1.23,1.25,2.77,1.88,4.68,1.88
				c1.92,0,3.52-0.63,4.79-1.9h12.66l2.57,13.26l6.42-19.71l1.82,6.02l1.18-0.36L176.7,15.36z M146.62,16.64
				c0.99-0.94,2.17-1.41,3.55-1.41c1.33,0,2.43,0.47,3.34,1.41c0.91,0.94,1.38,2.09,1.41,3.42h-9.85
				C145.13,18.71,145.65,17.56,146.62,16.64z"/>
			
				<linearGradient id="SVGID_00000080915109285875278330000015217930565338611126_" gradientUnits="userSpaceOnUse" x1="-10.5324" y1="23.3725" x2="188.1915" y2="-16.1642">
				<stop  offset="0" style="stop-color:#6A4822"/>
				<stop  offset="0.2458" style="stop-color:#EBCC92"/>
				<stop  offset="0.7818" style="stop-color:#DECBA5"/>
				<stop  offset="1" style="stop-color:#7F5D33"/>
			</linearGradient>
			<path style="fill:url(#SVGID_00000080915109285875278330000015217930565338611126_);" d="M37.92,23.29c0.34,0,0.71-0.05,1.1-0.13
				v-1.2c-0.29,0.08-0.65,0.1-1.1,0.1c-1.36,0-1.96-0.76-1.96-2.51V4.74h-1.31v14.89C34.65,22.06,35.75,23.29,37.92,23.29z"/>
			
				<linearGradient id="SVGID_00000183972001295833288530000014298542258462769569_" gradientUnits="userSpaceOnUse" x1="-9.707" y1="27.5211" x2="189.0169" y2="-12.0156">
				<stop  offset="0" style="stop-color:#6A4822"/>
				<stop  offset="0.2458" style="stop-color:#EBCC92"/>
				<stop  offset="0.7818" style="stop-color:#DECBA5"/>
				<stop  offset="1" style="stop-color:#7F5D33"/>
			</linearGradient>
			<path style="fill:url(#SVGID_00000183972001295833288530000014298542258462769569_);" d="M46.41,23.26c2.12,0,3.84-0.76,5.17-2.3
				l-0.86-0.84c-1.23,1.28-2.66,1.91-4.31,1.91c-1.49,0-2.74-0.5-3.71-1.49c-0.97-0.99-1.46-2.27-1.49-3.87h11.23
				c0.03-0.18,0.03-0.39,0.03-0.65c0-1.85-0.57-3.4-1.75-4.68c-1.15-1.28-2.61-1.91-4.36-1.91c-1.83,0-3.37,0.65-4.6,1.96
				c-1.23,1.28-1.83,2.95-1.83,4.99v0.08c0,2.01,0.6,3.63,1.8,4.91C42.96,22.64,44.5,23.26,46.41,23.26z M42.8,12.08
				c0.99-0.94,2.17-1.41,3.55-1.41c1.33,0,2.43,0.47,3.34,1.41s1.38,2.09,1.41,3.42h-9.85C41.31,14.15,41.83,13,42.8,12.08z"/>
			
				<linearGradient id="SVGID_00000046313618607806997390000008270950567364544432_" gradientUnits="userSpaceOnUse" x1="-9.2678" y1="29.7286" x2="189.4561" y2="-9.8081">
				<stop  offset="0" style="stop-color:#6A4822"/>
				<stop  offset="0.2458" style="stop-color:#EBCC92"/>
				<stop  offset="0.7818" style="stop-color:#DECBA5"/>
				<stop  offset="1" style="stop-color:#7F5D33"/>
			</linearGradient>
			<polygon style="fill:url(#SVGID_00000046313618607806997390000008270950567364544432_);" points="65.37,9.78 63.96,9.78 
				59.23,20.57 54.56,9.78 53.15,9.78 59.23,23.63 			"/>
			
				<linearGradient id="SVGID_00000017499018009727160020000002072808452052195254_" gradientUnits="userSpaceOnUse" x1="-8.7113" y1="32.5259" x2="190.0126" y2="-7.0108">
				<stop  offset="0" style="stop-color:#6A4822"/>
				<stop  offset="0.2458" style="stop-color:#EBCC92"/>
				<stop  offset="0.7818" style="stop-color:#DECBA5"/>
				<stop  offset="1" style="stop-color:#7F5D33"/>
			</linearGradient>
			<path style="fill:url(#SVGID_00000017499018009727160020000002072808452052195254_);" d="M72.56,23.26c2.12,0,3.84-0.76,5.17-2.3
				l-0.86-0.84c-1.23,1.28-2.66,1.91-4.31,1.91c-1.49,0-2.74-0.5-3.71-1.49c-0.97-0.99-1.46-2.27-1.49-3.87h11.23
				c0.03-0.18,0.03-0.39,0.03-0.65c0-1.85-0.57-3.4-1.75-4.68c-1.15-1.28-2.61-1.91-4.36-1.91c-1.83,0-3.37,0.65-4.6,1.96
				c-1.23,1.28-1.83,2.95-1.83,4.99v0.08c0,2.01,0.6,3.63,1.8,4.91C69.11,22.64,70.65,23.26,72.56,23.26z M68.95,12.08
				c0.99-0.94,2.17-1.41,3.55-1.41c1.33,0,2.43,0.47,3.34,1.41c0.91,0.94,1.38,2.09,1.41,3.42h-9.85
				C67.46,14.15,67.99,13,68.95,12.08z"/>
			
				<linearGradient id="SVGID_00000010300739913183444830000009158792875107804301_" gradientUnits="userSpaceOnUse" x1="-8.3565" y1="34.3092" x2="190.3674" y2="-5.2275">
				<stop  offset="0" style="stop-color:#6A4822"/>
				<stop  offset="0.2458" style="stop-color:#EBCC92"/>
				<stop  offset="0.7818" style="stop-color:#DECBA5"/>
				<stop  offset="1" style="stop-color:#7F5D33"/>
			</linearGradient>
			<path style="fill:url(#SVGID_00000010300739913183444830000009158792875107804301_);" d="M82.49,15.74c0-1.38,0.37-2.53,1.1-3.45
				c0.73-0.91,1.78-1.38,3.16-1.38c0.34,0,0.63,0.03,0.84,0.05V9.6c-0.13-0.03-0.34-0.03-0.63-0.03c-2.33,0-3.81,0.94-4.47,2.85
				V9.78h-1.31v13.17h1.31V15.74z"/>
			
				<linearGradient id="SVGID_00000160191691466229638760000014652006524900743595_" gradientUnits="userSpaceOnUse" x1="-9.4684" y1="28.7204" x2="189.2555" y2="-10.8162">
				<stop  offset="0" style="stop-color:#6A4822"/>
				<stop  offset="0.2458" style="stop-color:#EBCC92"/>
				<stop  offset="0.7818" style="stop-color:#DECBA5"/>
				<stop  offset="1" style="stop-color:#7F5D33"/>
			</linearGradient>
			<path style="fill:url(#SVGID_00000160191691466229638760000014652006524900743595_);" d="M106.36,24.35L93.58,8.81v17.48H26.56v0
				c-0.34,0-0.67,0.17-0.88,0.49c-1.05,1.6-2.06,3.21-3.11,4.62c-4.35,5.45-9.66,6.59-12.87,6.09c-3.53-0.5-6.23-3.11-7.19-7.14
				c-1.01-4.08-0.14-10.3,3.66-16.53c7.1-11.54,17.08-13.37,20.24-10.3l1.47-1.51C23.35-2.53,12.04,0.45,4.4,12.72
				c-4.08,6.5-5.08,13.37-3.98,18.13c1.14,4.76,4.44,8.06,9.02,8.75c3.8,0.6,10.07-0.82,14.79-6.87c1.09-1.53,2.46-3.63,3.5-5.21
				h67.21v0h0.01V12.46l12.78,15.54V9.3h-1.36V24.35z"/>
			
				<linearGradient id="SVGID_00000014632138407834103950000004474127786539689631_" gradientUnits="userSpaceOnUse" x1="-6.2022" y1="45.1375" x2="192.5217" y2="5.6009">
				<stop  offset="0" style="stop-color:#6A4822"/>
				<stop  offset="0.2458" style="stop-color:#EBCC92"/>
				<stop  offset="0.7818" style="stop-color:#DECBA5"/>
				<stop  offset="1" style="stop-color:#7F5D33"/>
			</linearGradient>
			<path style="fill:url(#SVGID_00000014632138407834103950000004474127786539689631_);" d="M121.22,22.39
				c0,2.72-1.54,4.18-4.13,4.18c-2.59,0-4.13-1.46-4.13-4.18v-8.05h-1.31v8.18c0,3.37,2.12,5.28,5.43,5.28
				c3.32,0,5.43-1.91,5.43-5.28v-8.18h-1.31V22.39z"/>
			
				<linearGradient id="SVGID_00000023279078560048951220000015200527174137029256_" gradientUnits="userSpaceOnUse" x1="-5.7937" y1="47.1907" x2="192.9302" y2="7.654">
				<stop  offset="0" style="stop-color:#6A4822"/>
				<stop  offset="0.2458" style="stop-color:#EBCC92"/>
				<stop  offset="0.7818" style="stop-color:#DECBA5"/>
				<stop  offset="1" style="stop-color:#7F5D33"/>
			</linearGradient>
			<path style="fill:url(#SVGID_00000023279078560048951220000015200527174137029256_);" d="M126.87,16.98v-2.64h-1.31v13.17h1.31
				V20.3c0-1.38,0.37-2.53,1.1-3.45c0.73-0.91,1.78-1.38,3.16-1.38c0.34,0,0.63,0.03,0.84,0.05v-1.36
				c-0.13-0.03-0.34-0.03-0.63-0.03C129.01,14.14,127.52,15.08,126.87,16.98z"/>
			
				<linearGradient id="SVGID_00000075129666946835657460000007398426539866464915_" gradientUnits="userSpaceOnUse" x1="-5.3626" y1="49.3574" x2="193.3613" y2="9.8207">
				<stop  offset="0" style="stop-color:#6A4822"/>
				<stop  offset="0.2458" style="stop-color:#EBCC92"/>
				<stop  offset="0.7818" style="stop-color:#DECBA5"/>
				<stop  offset="1" style="stop-color:#7F5D33"/>
			</linearGradient>
			<path style="fill:url(#SVGID_00000075129666946835657460000007398426539866464915_);" d="M138.18,20.04c-2.12-0.86-3-1.46-3-2.8
				c0-1.23,0.99-2.01,2.35-2.01c1.1,0,1.91,0.47,2.43,1.38l1.07-0.55c-0.71-1.38-1.88-2.06-3.53-2.06c-2.09,0-3.63,1.36-3.63,3.24
				c0,1.96,1.12,2.8,3.5,3.81c1.25,0.52,2.12,0.99,2.61,1.38c0.5,0.39,0.76,0.97,0.76,1.72c0,1.33-0.99,2.4-3.11,2.4
				c-1.99,0-3.27-0.94-3.79-2.38l-1.1,0.42c0.63,2.01,2.46,3.19,4.89,3.19c2.82,0,4.42-1.62,4.42-3.63S140.89,21.16,138.18,20.04z"
				/>
		</g>
		<g>
			<g>
				<path class="st10" d="M38.26,38.13h-3.39l1.24-6.09h3.33l-0.09,0.42h-2.87l-0.45,2.25h2.69l-0.08,0.42h-2.69l-0.53,2.59h2.93
					L38.26,38.13z"/>
				<path class="st10" d="M43.72,33.73l-2.99,4.63l-1.1-4.63h0.46l0.83,3.58l2.31-3.58H43.72z"/>
				<path class="st10" d="M43.52,36.3c0-0.73,0.24-1.35,0.71-1.88c0.49-0.54,1.08-0.81,1.78-0.81c0.57,0,1.02,0.18,1.35,0.55
					c0.34,0.35,0.5,0.82,0.5,1.39c0,0.18-0.02,0.33-0.06,0.45h-3.82c-0.01,0.06-0.02,0.14-0.02,0.25c0,0.49,0.15,0.88,0.44,1.16
					c0.29,0.28,0.69,0.42,1.19,0.42c0.55,0,1.06-0.19,1.52-0.58L47,37.79c-0.4,0.31-0.87,0.46-1.43,0.46c-0.63,0-1.13-0.18-1.5-0.53
					C43.7,37.37,43.52,36.9,43.52,36.3z M44.07,35.63h3.34c0.01-0.06,0.02-0.12,0.02-0.17c0-0.41-0.13-0.75-0.4-1.02
					c-0.27-0.27-0.62-0.41-1.04-0.41c-0.2,0-0.42,0.04-0.66,0.13c-0.21,0.08-0.45,0.25-0.71,0.52
					C44.36,34.93,44.18,35.25,44.07,35.63z"/>
				<path class="st10" d="M48.67,38.13h-0.44l0.9-4.4h0.45l-0.18,0.82c0.34-0.59,0.88-0.89,1.63-0.89c0.08,0,0.16,0.01,0.24,0.02
					l-0.09,0.43c-0.1-0.02-0.19-0.03-0.27-0.03c-0.45,0-0.82,0.15-1.13,0.45c-0.31,0.3-0.51,0.7-0.61,1.2L48.67,38.13z"/>
				<path class="st10" d="M51.51,39.82l1.09-1.75l-0.84-4.34h0.44l0.73,3.82l2.4-3.82h0.49L52,39.82H51.51z"/>
				<path class="st10" d="M55.67,36.2c0-0.69,0.25-1.29,0.76-1.81c0.51-0.52,1.11-0.78,1.81-0.78c0.64,0,1.16,0.2,1.54,0.58
					c0.4,0.4,0.61,0.9,0.61,1.51c0,0.66-0.25,1.25-0.75,1.76c-0.5,0.52-1.1,0.78-1.83,0.78c-0.63,0-1.15-0.19-1.55-0.57
					C55.86,37.29,55.67,36.8,55.67,36.2z M56.11,36.17c0,0.5,0.16,0.9,0.48,1.21c0.32,0.31,0.74,0.46,1.26,0.46
					c0.59,0,1.08-0.21,1.49-0.64c0.41-0.43,0.61-0.92,0.61-1.47c0-0.5-0.16-0.91-0.49-1.23c-0.32-0.32-0.74-0.48-1.27-0.48
					c-0.57,0-1.06,0.22-1.48,0.65C56.31,35.1,56.11,35.6,56.11,36.17z"/>
				<path class="st10" d="M61.2,38.13h-0.44l0.89-4.4h0.44l-0.17,0.79c0.33-0.57,0.84-0.86,1.54-0.86c0.48,0,0.87,0.14,1.15,0.42
					s0.42,0.66,0.42,1.13c0,0.19-0.02,0.36-0.05,0.51l-0.26,1.24c-0.16,0.77-0.23,1.16-0.23,1.18h-0.46c0,0,0.08-0.4,0.24-1.18
					l0.25-1.23c0.03-0.18,0.04-0.33,0.04-0.45c0-0.38-0.11-0.67-0.33-0.89s-0.52-0.32-0.9-0.32c-0.41,0-0.76,0.14-1.05,0.42
					c-0.29,0.28-0.49,0.67-0.59,1.16L61.2,38.13z"/>
				<path class="st10" d="M65.67,36.3c0-0.73,0.24-1.35,0.71-1.88c0.49-0.54,1.08-0.81,1.78-0.81c0.57,0,1.02,0.18,1.35,0.55
					c0.34,0.35,0.5,0.82,0.5,1.39c0,0.18-0.02,0.33-0.06,0.45h-3.82c-0.01,0.06-0.02,0.14-0.02,0.25c0,0.49,0.15,0.88,0.44,1.16
					c0.29,0.28,0.69,0.42,1.19,0.42c0.55,0,1.06-0.19,1.52-0.58l-0.1,0.53c-0.4,0.31-0.87,0.46-1.43,0.46
					c-0.63,0-1.13-0.18-1.5-0.53C65.86,37.37,65.67,36.9,65.67,36.3z M66.22,35.63h3.34c0.01-0.06,0.02-0.12,0.02-0.17
					c0-0.41-0.13-0.75-0.4-1.02c-0.27-0.27-0.62-0.41-1.04-0.41c-0.2,0-0.42,0.04-0.66,0.13c-0.21,0.08-0.45,0.25-0.71,0.52
					C66.52,34.93,66.34,35.25,66.22,35.63z"/>
				<path class="st10" d="M74.42,38.13h-0.44l0.89-4.4h0.44l-0.17,0.79c0.33-0.57,0.84-0.86,1.54-0.86c0.48,0,0.87,0.14,1.15,0.42
					s0.42,0.66,0.42,1.13c0,0.19-0.02,0.36-0.05,0.51l-0.26,1.24c-0.16,0.77-0.23,1.16-0.23,1.18h-0.46c0,0,0.08-0.4,0.24-1.18
					l0.25-1.23c0.03-0.18,0.04-0.33,0.04-0.45c0-0.38-0.11-0.67-0.33-0.89s-0.52-0.32-0.9-0.32c-0.41,0-0.76,0.14-1.05,0.42
					c-0.29,0.28-0.49,0.67-0.59,1.16L74.42,38.13z"/>
				<path class="st10" d="M78.89,36.3c0-0.73,0.24-1.35,0.71-1.88c0.49-0.54,1.08-0.81,1.78-0.81c0.57,0,1.02,0.18,1.35,0.55
					c0.34,0.35,0.5,0.82,0.5,1.39c0,0.18-0.02,0.33-0.06,0.45h-3.82c-0.01,0.06-0.02,0.14-0.02,0.25c0,0.49,0.15,0.88,0.44,1.16
					c0.29,0.28,0.69,0.42,1.19,0.42c0.55,0,1.06-0.19,1.52-0.58l-0.1,0.53c-0.4,0.31-0.87,0.46-1.43,0.46
					c-0.63,0-1.13-0.18-1.5-0.53C79.08,37.37,78.89,36.9,78.89,36.3z M79.44,35.63h3.34c0.01-0.06,0.02-0.12,0.02-0.17
					c0-0.41-0.13-0.75-0.4-1.02c-0.27-0.27-0.62-0.41-1.04-0.41c-0.2,0-0.42,0.04-0.66,0.13c-0.21,0.08-0.45,0.25-0.71,0.52
					C79.74,34.93,79.56,35.25,79.44,35.63z"/>
				<path class="st10" d="M83.79,36.3c0-0.73,0.24-1.35,0.71-1.88c0.49-0.54,1.08-0.81,1.78-0.81c0.57,0,1.02,0.18,1.35,0.55
					c0.34,0.35,0.5,0.82,0.5,1.39c0,0.18-0.02,0.33-0.06,0.45h-3.82c-0.01,0.06-0.02,0.14-0.02,0.25c0,0.49,0.15,0.88,0.44,1.16
					c0.29,0.28,0.69,0.42,1.19,0.42c0.55,0,1.06-0.19,1.52-0.58l-0.1,0.53c-0.4,0.31-0.87,0.46-1.43,0.46
					c-0.63,0-1.13-0.18-1.5-0.53C83.98,37.37,83.79,36.9,83.79,36.3z M84.34,35.63h3.34c0.01-0.06,0.02-0.12,0.02-0.17
					c0-0.41-0.13-0.75-0.4-1.02c-0.27-0.27-0.62-0.41-1.04-0.41c-0.2,0-0.42,0.04-0.66,0.13c-0.21,0.08-0.45,0.25-0.71,0.52
					C84.64,34.93,84.46,35.25,84.34,35.63z"/>
				<path class="st10" d="M88.71,36.21c0-0.68,0.24-1.28,0.73-1.81c0.5-0.53,1.1-0.79,1.8-0.79c0.49,0,0.89,0.11,1.21,0.32
					c0.34,0.21,0.55,0.47,0.62,0.76l0.55-2.65h0.44l-1.25,6.09h-0.44l0.18-0.85c-0.38,0.63-0.97,0.95-1.78,0.95
					c-0.61,0-1.11-0.19-1.49-0.56C88.9,37.29,88.71,36.8,88.71,36.21z M89.15,36.18c0,0.49,0.15,0.89,0.46,1.19
					c0.3,0.3,0.7,0.45,1.2,0.45c0.61,0,1.1-0.22,1.49-0.66c0.4-0.45,0.61-1,0.61-1.66c0-0.44-0.16-0.8-0.47-1.07
					c-0.32-0.28-0.74-0.41-1.24-0.41c-0.58,0-1.07,0.22-1.46,0.67C89.35,35.13,89.15,35.63,89.15,36.18z"/>
				<path class="st10" d="M93.76,37.53l0.11-0.49c0.15,0.25,0.36,0.44,0.61,0.57c0.25,0.14,0.53,0.21,0.83,0.21
					c0.32,0,0.58-0.08,0.78-0.25c0.2-0.17,0.3-0.37,0.3-0.61c0-0.21-0.06-0.38-0.19-0.52c-0.13-0.14-0.35-0.3-0.67-0.48
					c-0.35-0.19-0.6-0.37-0.75-0.54c-0.15-0.17-0.23-0.37-0.23-0.62c0-0.32,0.13-0.6,0.39-0.84c0.27-0.23,0.59-0.35,0.98-0.35
					c0.46,0,0.8,0.13,1.04,0.38l-0.1,0.42c-0.23-0.26-0.55-0.4-0.95-0.4c-0.26,0-0.48,0.07-0.65,0.22S95,34.57,95,34.79
					c0,0.12,0.04,0.23,0.11,0.34c0.07,0.09,0.14,0.16,0.21,0.21c0.07,0.05,0.2,0.13,0.38,0.23l0.44,0.26
					c0.07,0.04,0.19,0.13,0.35,0.27c0.24,0.21,0.36,0.48,0.36,0.81c0,0.37-0.14,0.68-0.42,0.93c-0.29,0.26-0.67,0.39-1.14,0.39
					c-0.33,0-0.63-0.07-0.92-0.2S93.88,37.73,93.76,37.53z"/>
				<path class="st10" d="M101.03,36.21c0-0.68,0.24-1.28,0.73-1.81c0.5-0.53,1.1-0.79,1.8-0.79c0.49,0,0.89,0.11,1.21,0.32
					c0.34,0.21,0.55,0.47,0.62,0.76l0.2-0.97h0.44l-0.9,4.4h-0.44l0.18-0.85c-0.38,0.63-0.97,0.95-1.78,0.95
					c-0.61,0-1.11-0.19-1.49-0.56C101.22,37.29,101.03,36.8,101.03,36.21z M101.47,36.18c0,0.49,0.15,0.89,0.46,1.19
					c0.3,0.3,0.7,0.45,1.2,0.45c0.61,0,1.1-0.22,1.49-0.66c0.4-0.45,0.61-1,0.61-1.66c0-0.44-0.16-0.8-0.47-1.07
					c-0.32-0.28-0.74-0.41-1.24-0.41c-0.58,0-1.07,0.22-1.46,0.67C101.67,35.13,101.47,35.63,101.47,36.18z"/>
				<path class="st10" d="M109.9,36.2c0-0.69,0.25-1.29,0.76-1.81c0.51-0.52,1.11-0.78,1.81-0.78c0.7,0,1.25,0.23,1.64,0.68
					l-0.09,0.45c-0.39-0.48-0.93-0.72-1.6-0.72c-0.57,0-1.06,0.22-1.48,0.65c-0.4,0.43-0.6,0.93-0.6,1.5c0,0.49,0.16,0.9,0.48,1.21
					c0.32,0.31,0.74,0.46,1.26,0.46c0.54,0,1.02-0.18,1.43-0.54l-0.11,0.53c-0.37,0.28-0.82,0.41-1.36,0.41
					c-0.63,0-1.15-0.19-1.55-0.57C110.09,37.29,109.9,36.8,109.9,36.2z"/>
				<path class="st10" d="M114.65,38.13h-0.44l1.24-6.09h0.45L114.65,38.13z"/>
				<path class="st10" d="M115.9,36.3c0-0.73,0.24-1.35,0.71-1.88c0.49-0.54,1.08-0.81,1.78-0.81c0.57,0,1.02,0.18,1.35,0.55
					c0.34,0.35,0.5,0.82,0.5,1.39c0,0.18-0.02,0.33-0.06,0.45h-3.82c-0.01,0.06-0.02,0.14-0.02,0.25c0,0.49,0.15,0.88,0.44,1.16
					c0.29,0.28,0.69,0.42,1.19,0.42c0.55,0,1.06-0.19,1.52-0.58l-0.1,0.53c-0.4,0.31-0.87,0.46-1.43,0.46
					c-0.63,0-1.13-0.18-1.5-0.53C116.08,37.37,115.9,36.9,115.9,36.3z M116.45,35.63h3.34c0.01-0.06,0.02-0.12,0.02-0.17
					c0-0.41-0.13-0.75-0.4-1.02c-0.27-0.27-0.62-0.41-1.04-0.41c-0.2,0-0.42,0.04-0.66,0.13c-0.21,0.08-0.45,0.25-0.71,0.52
					C116.74,34.93,116.56,35.25,116.45,35.63z"/>
				<path class="st10" d="M124.82,33.73l-2.99,4.63l-1.1-4.63h0.46l0.83,3.58l2.31-3.58H124.82z"/>
				<path class="st10" d="M124.61,36.3c0-0.73,0.24-1.35,0.71-1.88c0.49-0.54,1.08-0.81,1.78-0.81c0.57,0,1.02,0.18,1.35,0.55
					c0.34,0.35,0.5,0.82,0.5,1.39c0,0.18-0.02,0.33-0.06,0.45h-3.82c-0.01,0.06-0.02,0.14-0.02,0.25c0,0.49,0.15,0.88,0.44,1.16
					c0.29,0.28,0.69,0.42,1.19,0.42c0.55,0,1.06-0.19,1.52-0.58l-0.1,0.53c-0.4,0.31-0.87,0.46-1.43,0.46
					c-0.63,0-1.13-0.18-1.5-0.53C124.79,37.37,124.61,36.9,124.61,36.3z M125.16,35.63h3.34c0.01-0.06,0.02-0.12,0.02-0.17
					c0-0.41-0.13-0.75-0.4-1.02c-0.27-0.27-0.62-0.41-1.04-0.41c-0.2,0-0.42,0.04-0.66,0.13c-0.21,0.08-0.45,0.25-0.71,0.52
					C125.45,34.93,125.27,35.25,125.16,35.63z"/>
				<path class="st10" d="M129.77,38.13h-0.44l0.9-4.4h0.45l-0.18,0.82c0.34-0.59,0.88-0.89,1.63-0.89c0.08,0,0.16,0.01,0.24,0.02
					l-0.09,0.43c-0.1-0.02-0.19-0.03-0.27-0.03c-0.45,0-0.82,0.15-1.13,0.45c-0.31,0.3-0.51,0.7-0.61,1.2L129.77,38.13z"/>
				<path class="st10" d="M135.95,38.13h-0.44l0.89-4.4h0.44l-0.17,0.79c0.33-0.57,0.84-0.86,1.54-0.86c0.48,0,0.87,0.14,1.15,0.42
					s0.42,0.66,0.42,1.13c0,0.19-0.02,0.36-0.05,0.51l-0.26,1.24c-0.16,0.77-0.23,1.16-0.23,1.18h-0.46c0,0,0.08-0.4,0.24-1.18
					l0.25-1.23c0.03-0.18,0.04-0.33,0.04-0.45c0-0.38-0.11-0.67-0.33-0.89s-0.52-0.32-0.9-0.32c-0.41,0-0.76,0.14-1.05,0.42
					c-0.29,0.28-0.49,0.67-0.59,1.16L135.95,38.13z"/>
				<path class="st10" d="M140.48,36.73c0-0.1,0.02-0.26,0.06-0.49l0.51-2.52h0.45l-0.52,2.59c-0.03,0.18-0.05,0.32-0.05,0.41
					c0,0.32,0.11,0.58,0.34,0.78c0.23,0.2,0.54,0.31,0.93,0.31c0.83,0,1.33-0.45,1.52-1.34l0.56-2.75h0.44l-0.57,2.82
					c-0.11,0.56-0.34,0.98-0.69,1.26s-0.78,0.42-1.3,0.42c-0.51,0-0.92-0.14-1.23-0.42C140.63,37.53,140.48,37.17,140.48,36.73z"/>
				<path class="st10" d="M145.27,38.13h-0.44l0.9-4.4h0.45L146,34.55c0.34-0.59,0.88-0.89,1.63-0.89c0.08,0,0.16,0.01,0.24,0.02
					l-0.09,0.43c-0.1-0.02-0.19-0.03-0.27-0.03c-0.45,0-0.82,0.15-1.13,0.45c-0.31,0.3-0.51,0.7-0.61,1.2L145.27,38.13z"/>
				<path class="st10" d="M147.46,37.53l0.11-0.49c0.15,0.25,0.36,0.44,0.61,0.57c0.25,0.14,0.53,0.21,0.83,0.21
					c0.32,0,0.58-0.08,0.78-0.25c0.2-0.17,0.3-0.37,0.3-0.61c0-0.21-0.06-0.38-0.19-0.52c-0.13-0.14-0.35-0.3-0.67-0.48
					c-0.35-0.19-0.6-0.37-0.75-0.54c-0.15-0.17-0.23-0.37-0.23-0.62c0-0.32,0.13-0.6,0.39-0.84c0.27-0.23,0.59-0.35,0.98-0.35
					c0.46,0,0.8,0.13,1.04,0.38l-0.1,0.42c-0.23-0.26-0.55-0.4-0.95-0.4c-0.26,0-0.48,0.07-0.65,0.22s-0.26,0.33-0.26,0.54
					c0,0.12,0.04,0.23,0.11,0.34c0.07,0.09,0.14,0.16,0.21,0.21c0.07,0.05,0.2,0.13,0.38,0.23l0.44,0.26
					c0.07,0.04,0.19,0.13,0.35,0.27c0.24,0.21,0.36,0.48,0.36,0.81c0,0.37-0.14,0.68-0.42,0.93c-0.29,0.26-0.67,0.39-1.14,0.39
					c-0.33,0-0.63-0.07-0.92-0.2S147.58,37.73,147.46,37.53z"/>
				<path class="st10" d="M151.24,36.3c0-0.73,0.24-1.35,0.71-1.88c0.49-0.54,1.08-0.81,1.78-0.81c0.57,0,1.02,0.18,1.35,0.55
					c0.34,0.35,0.5,0.82,0.5,1.39c0,0.18-0.02,0.33-0.06,0.45h-3.82c-0.01,0.06-0.02,0.14-0.02,0.25c0,0.49,0.15,0.88,0.44,1.16
					c0.29,0.28,0.69,0.42,1.19,0.42c0.55,0,1.06-0.19,1.52-0.58l-0.1,0.53c-0.4,0.31-0.87,0.46-1.43,0.46
					c-0.63,0-1.13-0.18-1.5-0.53C151.42,37.37,151.24,36.9,151.24,36.3z M151.79,35.63h3.34c0.01-0.06,0.02-0.12,0.02-0.17
					c0-0.41-0.13-0.75-0.4-1.02c-0.27-0.27-0.62-0.41-1.04-0.41c-0.2,0-0.42,0.04-0.66,0.13c-0.21,0.08-0.45,0.25-0.71,0.52
					C152.08,34.93,151.9,35.25,151.79,35.63z"/>
			</g>
		</g>
	</g>
</g>
</svg>
